<svg width="21" height="21" viewBox="0 0 21 21" fill="none" xmlns="http://www.w3.org/2000/svg">
<g id="Star">
<path id="Star_2" d="M9.49682 1.93515C9.86363 1.1919 10.9235 1.1919 11.2903 1.93515L13.0998 5.60164C13.2455 5.89678 13.527 6.10135 13.8527 6.14868L17.899 6.73663C18.7192 6.85581 19.0467 7.86378 18.4532 8.44232L15.5253 11.2963C15.2896 11.526 15.1821 11.857 15.2377 12.1814L15.9289 16.2113C16.069 17.0282 15.2116 17.6511 14.4779 17.2654L10.8589 15.3628C10.5676 15.2097 10.2195 15.2097 9.92821 15.3628L6.30917 17.2654C5.57555 17.6511 4.71811 17.0282 4.85822 16.2113L5.5494 12.1814C5.60504 11.857 5.49749 11.526 5.2618 11.2963L2.33394 8.44232C1.74042 7.86378 2.06793 6.85581 2.88815 6.73663L6.93436 6.14868C7.26007 6.10135 7.54164 5.89678 7.6873 5.60164L9.49682 1.93515Z" fill="#2D2D2D"/>
</g>
</svg>
